<mxfile host="app.diagrams.net" modified="2023-07-11T17:21:56.297Z" agent="Mozilla/5.0 (X11; Linux x86_64) AppleWebKit/537.36 (KHTML, like Gecko) Chrome/111.0.0.0 Safari/537.36" etag="zt1oD9Fr1dEyjvI8NsxE" version="21.6.2" type="github">
  <diagram name="第 1 页" id="NUxDLC7CcFFGVshqn-1u">
    <mxGraphModel dx="1185" dy="614" grid="1" gridSize="10" guides="1" tooltips="1" connect="1" arrows="1" fold="1" page="1" pageScale="1" pageWidth="827" pageHeight="1169" math="0" shadow="0">
      <root>
        <mxCell id="0" />
        <mxCell id="1" parent="0" />
        <mxCell id="EeiDZIce7VBrEbFo4yMd-65" value="" style="rounded=1;whiteSpace=wrap;html=1;fillColor=#D4E1F5;fillStyle=auto;glass=0;" vertex="1" parent="1">
          <mxGeometry x="80" y="190" width="860" height="230" as="geometry" />
        </mxCell>
        <mxCell id="EeiDZIce7VBrEbFo4yMd-12" style="edgeStyle=orthogonalEdgeStyle;rounded=0;orthogonalLoop=1;jettySize=auto;html=1;exitX=1;exitY=0.5;exitDx=0;exitDy=0;entryX=0;entryY=0.5;entryDx=0;entryDy=0;" edge="1" parent="1" source="EeiDZIce7VBrEbFo4yMd-1" target="EeiDZIce7VBrEbFo4yMd-5">
          <mxGeometry relative="1" as="geometry" />
        </mxCell>
        <mxCell id="EeiDZIce7VBrEbFo4yMd-1" value="CBS" style="rounded=0;whiteSpace=wrap;html=1;fillColor=#d5e8d4;strokeColor=#82b366;" vertex="1" parent="1">
          <mxGeometry x="150" y="240" width="70" height="30" as="geometry" />
        </mxCell>
        <mxCell id="EeiDZIce7VBrEbFo4yMd-2" value="CBS" style="rounded=0;whiteSpace=wrap;html=1;fillColor=#d5e8d4;strokeColor=#82b366;" vertex="1" parent="1">
          <mxGeometry x="790" y="240" width="70" height="30" as="geometry" />
        </mxCell>
        <mxCell id="EeiDZIce7VBrEbFo4yMd-5" value="&lt;font style=&quot;vertical-align: inherit;&quot;&gt;&lt;font style=&quot;vertical-align: inherit;&quot;&gt;Chunk&lt;/font&gt;&lt;/font&gt;" style="shape=lineEllipse;line=vertical;perimeter=ellipsePerimeter;whiteSpace=wrap;html=1;backgroundOutline=1;fillColor=#e6d0de;gradientColor=#d5739d;strokeColor=#996185;" vertex="1" parent="1">
          <mxGeometry x="250" y="235" width="40" height="40" as="geometry" />
        </mxCell>
        <mxCell id="EeiDZIce7VBrEbFo4yMd-6" value="&lt;font style=&quot;font-size: 10px;&quot;&gt;Bottleneck&lt;br&gt;1&lt;br&gt;&lt;/font&gt;" style="shape=process;whiteSpace=wrap;html=1;backgroundOutline=1;fillColor=#eeeeee;strokeColor=#36393d;" vertex="1" parent="1">
          <mxGeometry x="320" y="240" width="70" height="30" as="geometry" />
        </mxCell>
        <mxCell id="EeiDZIce7VBrEbFo4yMd-7" value="Bottleneck&lt;br&gt;2" style="shape=process;whiteSpace=wrap;html=1;backgroundOutline=1;fillColor=#f5f5f5;strokeColor=#666666;fontColor=#333333;" vertex="1" parent="1">
          <mxGeometry x="424" y="240" width="70" height="30" as="geometry" />
        </mxCell>
        <mxCell id="EeiDZIce7VBrEbFo4yMd-8" value="Bottleneck&lt;br&gt;n" style="shape=process;whiteSpace=wrap;html=1;backgroundOutline=1;fillColor=#f5f5f5;strokeColor=#666666;fontColor=#333333;" vertex="1" parent="1">
          <mxGeometry x="560" y="240" width="70" height="30" as="geometry" />
        </mxCell>
        <mxCell id="EeiDZIce7VBrEbFo4yMd-9" value="Cat" style="shape=cube;whiteSpace=wrap;html=1;boundedLbl=1;backgroundOutline=1;darkOpacity=0.05;darkOpacity2=0.1;fillColor=#fff2cc;strokeColor=#d6b656;" vertex="1" parent="1">
          <mxGeometry x="680" y="235" width="80" height="40" as="geometry" />
        </mxCell>
        <mxCell id="EeiDZIce7VBrEbFo4yMd-11" value="" style="endArrow=classic;html=1;rounded=0;exitX=1;exitY=0.5;exitDx=0;exitDy=0;entryX=0;entryY=0.5;entryDx=0;entryDy=0;" edge="1" parent="1" source="EeiDZIce7VBrEbFo4yMd-5" target="EeiDZIce7VBrEbFo4yMd-6">
          <mxGeometry width="50" height="50" relative="1" as="geometry">
            <mxPoint x="290" y="270" as="sourcePoint" />
            <mxPoint x="320" y="270" as="targetPoint" />
            <Array as="points">
              <mxPoint x="300" y="255" />
            </Array>
          </mxGeometry>
        </mxCell>
        <mxCell id="EeiDZIce7VBrEbFo4yMd-13" value="" style="endArrow=classic;html=1;rounded=0;exitX=1;exitY=0.5;exitDx=0;exitDy=0;entryX=0;entryY=0.5;entryDx=0;entryDy=0;" edge="1" parent="1" source="EeiDZIce7VBrEbFo4yMd-6" target="EeiDZIce7VBrEbFo4yMd-7">
          <mxGeometry width="50" height="50" relative="1" as="geometry">
            <mxPoint x="440" y="480" as="sourcePoint" />
            <mxPoint x="490" y="430" as="targetPoint" />
          </mxGeometry>
        </mxCell>
        <mxCell id="EeiDZIce7VBrEbFo4yMd-14" value="" style="endArrow=classic;html=1;rounded=0;exitX=1;exitY=0.5;exitDx=0;exitDy=0;" edge="1" parent="1" source="EeiDZIce7VBrEbFo4yMd-8" target="EeiDZIce7VBrEbFo4yMd-9">
          <mxGeometry width="50" height="50" relative="1" as="geometry">
            <mxPoint x="390" y="390" as="sourcePoint" />
            <mxPoint x="440" y="340" as="targetPoint" />
          </mxGeometry>
        </mxCell>
        <mxCell id="EeiDZIce7VBrEbFo4yMd-15" value="" style="endArrow=classic;html=1;rounded=0;exitX=0;exitY=0;exitDx=80;exitDy=20;exitPerimeter=0;" edge="1" parent="1" source="EeiDZIce7VBrEbFo4yMd-9" target="EeiDZIce7VBrEbFo4yMd-2">
          <mxGeometry width="50" height="50" relative="1" as="geometry">
            <mxPoint x="390" y="390" as="sourcePoint" />
            <mxPoint x="440" y="340" as="targetPoint" />
          </mxGeometry>
        </mxCell>
        <mxCell id="EeiDZIce7VBrEbFo4yMd-17" value="" style="edgeStyle=elbowEdgeStyle;elbow=horizontal;endArrow=classic;html=1;curved=0;rounded=0;endSize=8;startSize=8;entryX=0.915;entryY=1.005;entryDx=0;entryDy=0;entryPerimeter=0;exitX=0;exitY=1;exitDx=0;exitDy=0;" edge="1" parent="1" source="EeiDZIce7VBrEbFo4yMd-5" target="EeiDZIce7VBrEbFo4yMd-9">
          <mxGeometry width="50" height="50" relative="1" as="geometry">
            <mxPoint x="484" y="394" as="sourcePoint" />
            <mxPoint x="760" y="290" as="targetPoint" />
            <Array as="points">
              <mxPoint x="510" y="410" />
            </Array>
          </mxGeometry>
        </mxCell>
        <mxCell id="EeiDZIce7VBrEbFo4yMd-19" value="" style="endArrow=classic;html=1;rounded=0;exitX=1;exitY=0.5;exitDx=0;exitDy=0;dashed=1;" edge="1" parent="1" source="EeiDZIce7VBrEbFo4yMd-7">
          <mxGeometry width="50" height="50" relative="1" as="geometry">
            <mxPoint x="480" y="380" as="sourcePoint" />
            <mxPoint x="520" y="255" as="targetPoint" />
          </mxGeometry>
        </mxCell>
        <mxCell id="EeiDZIce7VBrEbFo4yMd-20" value="" style="endArrow=classic;html=1;rounded=0;entryX=0;entryY=0.5;entryDx=0;entryDy=0;dashed=1;" edge="1" parent="1" target="EeiDZIce7VBrEbFo4yMd-8">
          <mxGeometry width="50" height="50" relative="1" as="geometry">
            <mxPoint x="530" y="255" as="sourcePoint" />
            <mxPoint x="520" y="265" as="targetPoint" />
          </mxGeometry>
        </mxCell>
        <mxCell id="EeiDZIce7VBrEbFo4yMd-22" value="y0" style="text;strokeColor=none;align=center;fillColor=none;html=1;verticalAlign=middle;whiteSpace=wrap;rounded=0;" vertex="1" parent="1">
          <mxGeometry x="230" y="280" width="20" height="20" as="geometry" />
        </mxCell>
        <mxCell id="EeiDZIce7VBrEbFo4yMd-23" value="y1" style="text;strokeColor=none;align=center;fillColor=none;html=1;verticalAlign=middle;whiteSpace=wrap;rounded=0;" vertex="1" parent="1">
          <mxGeometry x="290" y="230" width="20" height="20" as="geometry" />
        </mxCell>
        <mxCell id="EeiDZIce7VBrEbFo4yMd-24" value="" style="edgeStyle=elbowEdgeStyle;elbow=horizontal;endArrow=classic;html=1;curved=0;rounded=0;endSize=8;startSize=8;entryX=0.742;entryY=0.995;entryDx=0;entryDy=0;entryPerimeter=0;" edge="1" parent="1" source="EeiDZIce7VBrEbFo4yMd-29" target="EeiDZIce7VBrEbFo4yMd-9">
          <mxGeometry width="50" height="50" relative="1" as="geometry">
            <mxPoint x="300" y="320" as="sourcePoint" />
            <mxPoint x="727.8" y="385" as="targetPoint" />
            <Array as="points">
              <mxPoint x="520" y="400" />
            </Array>
          </mxGeometry>
        </mxCell>
        <mxCell id="EeiDZIce7VBrEbFo4yMd-29" value="" style="shape=waypoint;sketch=0;fillStyle=solid;size=6;pointerEvents=1;points=[];fillColor=none;resizable=0;rotatable=0;perimeter=centerPerimeter;snapToPoint=1;" vertex="1" parent="1">
          <mxGeometry x="290" y="245" width="20" height="20" as="geometry" />
        </mxCell>
        <mxCell id="EeiDZIce7VBrEbFo4yMd-31" value="y2" style="text;strokeColor=none;align=center;fillColor=none;html=1;verticalAlign=middle;whiteSpace=wrap;rounded=0;" vertex="1" parent="1">
          <mxGeometry x="390" y="230" width="20" height="20" as="geometry" />
        </mxCell>
        <mxCell id="EeiDZIce7VBrEbFo4yMd-32" value="" style="shape=waypoint;sketch=0;fillStyle=solid;size=6;pointerEvents=1;points=[];fillColor=none;resizable=0;rotatable=0;perimeter=centerPerimeter;snapToPoint=1;" vertex="1" parent="1">
          <mxGeometry x="390" y="245" width="20" height="20" as="geometry" />
        </mxCell>
        <mxCell id="EeiDZIce7VBrEbFo4yMd-33" value="" style="edgeStyle=elbowEdgeStyle;elbow=horizontal;endArrow=classic;html=1;curved=0;rounded=0;endSize=8;startSize=8;entryX=0;entryY=0;entryDx=50;entryDy=40;entryPerimeter=0;" edge="1" parent="1" source="EeiDZIce7VBrEbFo4yMd-32" target="EeiDZIce7VBrEbFo4yMd-9">
          <mxGeometry width="50" height="50" relative="1" as="geometry">
            <mxPoint x="490" y="330" as="sourcePoint" />
            <mxPoint x="700" y="360" as="targetPoint" />
            <Array as="points">
              <mxPoint x="420" y="390" />
            </Array>
          </mxGeometry>
        </mxCell>
        <mxCell id="EeiDZIce7VBrEbFo4yMd-35" value="y3" style="text;strokeColor=none;align=center;fillColor=none;html=1;verticalAlign=middle;whiteSpace=wrap;rounded=0;" vertex="1" parent="1">
          <mxGeometry x="500" y="230" width="20" height="20" as="geometry" />
        </mxCell>
        <mxCell id="EeiDZIce7VBrEbFo4yMd-36" value="" style="shape=waypoint;sketch=0;fillStyle=solid;size=6;pointerEvents=1;points=[];fillColor=none;resizable=0;rotatable=0;perimeter=centerPerimeter;snapToPoint=1;" vertex="1" parent="1">
          <mxGeometry x="494" y="245" width="20" height="20" as="geometry" />
        </mxCell>
        <mxCell id="EeiDZIce7VBrEbFo4yMd-37" value="" style="edgeStyle=segmentEdgeStyle;endArrow=classic;html=1;curved=0;rounded=0;endSize=8;startSize=8;entryX=0.488;entryY=0.995;entryDx=0;entryDy=0;entryPerimeter=0;" edge="1" parent="1" source="EeiDZIce7VBrEbFo4yMd-36" target="EeiDZIce7VBrEbFo4yMd-9">
          <mxGeometry width="50" height="50" relative="1" as="geometry">
            <mxPoint x="490" y="330" as="sourcePoint" />
            <mxPoint x="540" y="280" as="targetPoint" />
            <Array as="points">
              <mxPoint x="504" y="380" />
              <mxPoint x="719" y="380" />
            </Array>
          </mxGeometry>
        </mxCell>
        <mxCell id="EeiDZIce7VBrEbFo4yMd-38" value="yn" style="text;strokeColor=none;align=center;fillColor=none;html=1;verticalAlign=middle;whiteSpace=wrap;rounded=0;" vertex="1" parent="1">
          <mxGeometry x="540" y="230" width="20" height="20" as="geometry" />
        </mxCell>
        <mxCell id="EeiDZIce7VBrEbFo4yMd-39" value="y(n+1)" style="text;strokeColor=none;align=center;fillColor=none;html=1;verticalAlign=middle;whiteSpace=wrap;rounded=0;" vertex="1" parent="1">
          <mxGeometry x="640" y="230" width="20" height="20" as="geometry" />
        </mxCell>
        <mxCell id="EeiDZIce7VBrEbFo4yMd-40" value="" style="shape=waypoint;sketch=0;fillStyle=solid;size=6;pointerEvents=1;points=[];fillColor=none;resizable=0;rotatable=0;perimeter=centerPerimeter;snapToPoint=1;" vertex="1" parent="1">
          <mxGeometry x="530" y="245" width="20" height="20" as="geometry" />
        </mxCell>
        <mxCell id="EeiDZIce7VBrEbFo4yMd-44" value="" style="edgeStyle=segmentEdgeStyle;endArrow=classic;html=1;curved=0;rounded=0;endSize=8;startSize=8;entryX=0.312;entryY=1.046;entryDx=0;entryDy=0;entryPerimeter=0;" edge="1" parent="1" source="EeiDZIce7VBrEbFo4yMd-40" target="EeiDZIce7VBrEbFo4yMd-9">
          <mxGeometry width="50" height="50" relative="1" as="geometry">
            <mxPoint x="514" y="265" as="sourcePoint" />
            <mxPoint x="729" y="285" as="targetPoint" />
            <Array as="points">
              <mxPoint x="540" y="300" />
              <mxPoint x="705" y="300" />
            </Array>
          </mxGeometry>
        </mxCell>
        <mxCell id="EeiDZIce7VBrEbFo4yMd-45" value="0,1,2,3,...,n, n+1" style="text;strokeColor=none;align=center;fillColor=none;html=1;verticalAlign=middle;whiteSpace=wrap;rounded=0;" vertex="1" parent="1">
          <mxGeometry x="620" y="315" width="100" height="20" as="geometry" />
        </mxCell>
        <mxCell id="EeiDZIce7VBrEbFo4yMd-46" value="" style="shape=curlyBracket;whiteSpace=wrap;html=1;rounded=1;labelPosition=left;verticalLabelPosition=middle;align=right;verticalAlign=middle;rotation=90;" vertex="1" parent="1">
          <mxGeometry x="464" y="70" width="20" height="310" as="geometry" />
        </mxCell>
        <mxCell id="EeiDZIce7VBrEbFo4yMd-48" value="n" style="text;strokeColor=none;align=center;fillColor=none;html=1;verticalAlign=middle;whiteSpace=wrap;rounded=0;" vertex="1" parent="1">
          <mxGeometry x="444" y="190" width="60" height="30" as="geometry" />
        </mxCell>
        <mxCell id="EeiDZIce7VBrEbFo4yMd-50" value="" style="shape=curlyBracket;whiteSpace=wrap;html=1;rounded=1;flipH=1;labelPosition=right;verticalLabelPosition=middle;align=left;verticalAlign=middle;rotation=90;" vertex="1" parent="1">
          <mxGeometry x="665" y="300" width="10" height="80" as="geometry" />
        </mxCell>
        <mxCell id="EeiDZIce7VBrEbFo4yMd-51" value="n+2" style="text;strokeColor=none;align=center;fillColor=none;html=1;verticalAlign=middle;whiteSpace=wrap;rounded=0;" vertex="1" parent="1">
          <mxGeometry x="655" y="335" width="30" height="30" as="geometry" />
        </mxCell>
        <mxCell id="EeiDZIce7VBrEbFo4yMd-52" value="" style="endArrow=classic;html=1;rounded=0;entryX=0;entryY=0.5;entryDx=0;entryDy=0;" edge="1" parent="1" target="EeiDZIce7VBrEbFo4yMd-1">
          <mxGeometry width="50" height="50" relative="1" as="geometry">
            <mxPoint x="120" y="255" as="sourcePoint" />
            <mxPoint x="810" y="330" as="targetPoint" />
          </mxGeometry>
        </mxCell>
        <mxCell id="EeiDZIce7VBrEbFo4yMd-54" value="" style="endArrow=classic;html=1;rounded=0;exitX=1;exitY=0.5;exitDx=0;exitDy=0;" edge="1" parent="1" source="EeiDZIce7VBrEbFo4yMd-2">
          <mxGeometry width="50" height="50" relative="1" as="geometry">
            <mxPoint x="760" y="380" as="sourcePoint" />
            <mxPoint x="880" y="255" as="targetPoint" />
          </mxGeometry>
        </mxCell>
        <mxCell id="EeiDZIce7VBrEbFo4yMd-55" value="[bs, c, w, h]" style="text;strokeColor=none;align=center;fillColor=none;html=1;verticalAlign=middle;whiteSpace=wrap;rounded=0;" vertex="1" parent="1">
          <mxGeometry x="80" y="220" width="80" height="30" as="geometry" />
        </mxCell>
        <mxCell id="EeiDZIce7VBrEbFo4yMd-56" value="[bs, c, w, h]" style="text;strokeColor=none;align=center;fillColor=none;html=1;verticalAlign=middle;whiteSpace=wrap;rounded=0;" vertex="1" parent="1">
          <mxGeometry x="860" y="220" width="80" height="30" as="geometry" />
        </mxCell>
        <mxCell id="EeiDZIce7VBrEbFo4yMd-57" value="[bs, c/2, w, h]" style="text;strokeColor=none;align=center;fillColor=none;html=1;verticalAlign=middle;whiteSpace=wrap;rounded=0;" vertex="1" parent="1">
          <mxGeometry x="180" y="310" width="80" height="30" as="geometry" />
        </mxCell>
        <mxCell id="EeiDZIce7VBrEbFo4yMd-58" value="[bs, c/2, w, h]" style="text;strokeColor=none;align=center;fillColor=none;html=1;verticalAlign=middle;whiteSpace=wrap;rounded=0;" vertex="1" parent="1">
          <mxGeometry x="260" y="200" width="80" height="30" as="geometry" />
        </mxCell>
        <mxCell id="EeiDZIce7VBrEbFo4yMd-59" value="[bs, c/2, w, h]" style="text;strokeColor=none;align=center;fillColor=none;html=1;verticalAlign=middle;whiteSpace=wrap;rounded=0;" vertex="1" parent="1">
          <mxGeometry x="350" y="310" width="80" height="30" as="geometry" />
        </mxCell>
        <mxCell id="EeiDZIce7VBrEbFo4yMd-60" value="[bs, (n+2)c/2, w, h]" style="text;strokeColor=none;align=center;fillColor=none;html=1;verticalAlign=middle;whiteSpace=wrap;rounded=0;" vertex="1" parent="1">
          <mxGeometry x="730" y="205" width="110" height="30" as="geometry" />
        </mxCell>
        <mxCell id="EeiDZIce7VBrEbFo4yMd-61" value="&lt;h3&gt;&lt;font color=&quot;#ea6b66&quot;&gt;C2f_True&lt;/font&gt;&lt;/h3&gt;" style="text;strokeColor=none;align=center;fillColor=none;html=1;verticalAlign=middle;whiteSpace=wrap;rounded=0;" vertex="1" parent="1">
          <mxGeometry x="470" y="160" width="60" height="30" as="geometry" />
        </mxCell>
        <mxCell id="EeiDZIce7VBrEbFo4yMd-66" value="Bottleneck_add" style="shape=process;whiteSpace=wrap;html=1;backgroundOutline=1;fillColor=#f5f5f5;strokeColor=#666666;fontColor=#333333;" vertex="1" parent="1">
          <mxGeometry x="140" y="440" width="110" height="30" as="geometry" />
        </mxCell>
        <mxCell id="EeiDZIce7VBrEbFo4yMd-67" value="CBS" style="rounded=0;whiteSpace=wrap;html=1;fillColor=#d5e8d4;strokeColor=#82b366;" vertex="1" parent="1">
          <mxGeometry x="120" y="495" width="70" height="30" as="geometry" />
        </mxCell>
        <mxCell id="EeiDZIce7VBrEbFo4yMd-68" value="" style="endArrow=classic;html=1;rounded=0;entryX=0;entryY=0.5;entryDx=0;entryDy=0;" edge="1" parent="1" target="EeiDZIce7VBrEbFo4yMd-67">
          <mxGeometry width="50" height="50" relative="1" as="geometry">
            <mxPoint x="80" y="510" as="sourcePoint" />
            <mxPoint x="450" y="330" as="targetPoint" />
          </mxGeometry>
        </mxCell>
        <mxCell id="EeiDZIce7VBrEbFo4yMd-69" value="CBS" style="rounded=0;whiteSpace=wrap;html=1;fillColor=#d5e8d4;strokeColor=#82b366;" vertex="1" parent="1">
          <mxGeometry x="220" y="495" width="70" height="30" as="geometry" />
        </mxCell>
        <mxCell id="EeiDZIce7VBrEbFo4yMd-70" value="" style="endArrow=classic;html=1;rounded=0;entryX=0;entryY=0.529;entryDx=0;entryDy=0;exitX=1;exitY=0.5;exitDx=0;exitDy=0;entryPerimeter=0;" edge="1" parent="1" source="EeiDZIce7VBrEbFo4yMd-67" target="EeiDZIce7VBrEbFo4yMd-69">
          <mxGeometry width="50" height="50" relative="1" as="geometry">
            <mxPoint x="90" y="520" as="sourcePoint" />
            <mxPoint x="130" y="520" as="targetPoint" />
          </mxGeometry>
        </mxCell>
        <mxCell id="EeiDZIce7VBrEbFo4yMd-71" value="" style="shape=orEllipse;perimeter=ellipsePerimeter;whiteSpace=wrap;html=1;backgroundOutline=1;" vertex="1" parent="1">
          <mxGeometry x="317" y="500" width="16" height="20" as="geometry" />
        </mxCell>
        <mxCell id="EeiDZIce7VBrEbFo4yMd-72" value="" style="endArrow=classic;html=1;rounded=0;entryX=0;entryY=0.5;entryDx=0;entryDy=0;exitX=1;exitY=0.5;exitDx=0;exitDy=0;" edge="1" parent="1" source="EeiDZIce7VBrEbFo4yMd-69" target="EeiDZIce7VBrEbFo4yMd-71">
          <mxGeometry width="50" height="50" relative="1" as="geometry">
            <mxPoint x="200" y="520" as="sourcePoint" />
            <mxPoint x="230" y="521" as="targetPoint" />
          </mxGeometry>
        </mxCell>
        <mxCell id="EeiDZIce7VBrEbFo4yMd-73" value="" style="shape=waypoint;sketch=0;fillStyle=solid;size=6;pointerEvents=1;points=[];fillColor=none;resizable=0;rotatable=0;perimeter=centerPerimeter;snapToPoint=1;" vertex="1" parent="1">
          <mxGeometry x="90" y="500" width="20" height="20" as="geometry" />
        </mxCell>
        <mxCell id="EeiDZIce7VBrEbFo4yMd-75" value="" style="edgeStyle=segmentEdgeStyle;endArrow=classic;html=1;curved=0;rounded=0;endSize=8;startSize=8;entryX=0.5;entryY=0;entryDx=0;entryDy=0;" edge="1" parent="1" source="EeiDZIce7VBrEbFo4yMd-73" target="EeiDZIce7VBrEbFo4yMd-71">
          <mxGeometry width="50" height="50" relative="1" as="geometry">
            <mxPoint x="300" y="500" as="sourcePoint" />
            <mxPoint x="350" y="450" as="targetPoint" />
            <Array as="points">
              <mxPoint x="100" y="480" />
              <mxPoint x="325" y="480" />
            </Array>
          </mxGeometry>
        </mxCell>
        <mxCell id="EeiDZIce7VBrEbFo4yMd-78" value="" style="endArrow=classic;html=1;rounded=0;exitX=1;exitY=0.5;exitDx=0;exitDy=0;" edge="1" parent="1" source="EeiDZIce7VBrEbFo4yMd-71">
          <mxGeometry width="50" height="50" relative="1" as="geometry">
            <mxPoint x="394" y="525" as="sourcePoint" />
            <mxPoint x="350" y="510" as="targetPoint" />
          </mxGeometry>
        </mxCell>
      </root>
    </mxGraphModel>
  </diagram>
</mxfile>
